<svg id="Capa_1" enable-background="new 0 0 383.27 383.27" height="512" viewBox="0 0 383.27 383.27" width="512" xmlns="http://www.w3.org/2000/svg"><g><path d="m300.153 213.133h-217.033c-5.819 0-10.536 4.717-10.536 10.536s4.717 10.536 10.536 10.536h217.033c5.819 0 10.536-4.717 10.536-10.536-.001-5.819-4.718-10.536-10.536-10.536z" fill="#ebf0f3"/><path d="m303.97 233.767h-224.469c-3.71 0-6.718 3.008-6.718 6.718 0 23.871 19.351 43.223 43.223 43.223h151.46c23.871 0 43.223-19.351 43.223-43.223-.001-3.71-3.009-6.718-6.719-6.718z" fill="#fcd462"/><path d="m310.68 240.475c0 23.883-19.335 43.218-43.218 43.218h-151.46c-23.883 0-43.218-19.335-43.218-43.218 0-2.041.931-3.903 2.399-5.084 5.836 16.9 21.913 29.039 40.819 29.039h151.46c18.906 0 34.983-12.138 40.819-29.039 1.468 1.181 2.399 3.043 2.399 5.084z" fill="#f7be56"/><path d="m98.108 219.621c2.051-2.362 5.81-4.271 8.103-2.143.286 5.5 6.606 9.778 11.818 7.999 4.804-1.639 8.126-7.257 13.198-7.049 7.335.302 10.384 12.449 17.684 11.671 5.907-.629 8.554-9.64 14.491-9.438 4.871.166 8.283 6.771 13.032 5.671 2.362-.547 3.897-2.885 6.144-3.796 5.353-2.169 11.166 4.566 16.645 2.738 2.688-.897 4.388-3.64 7.002-4.733 7.959-3.328 15.815 10.29 23.728 6.857 2.752-1.194 4.256-4.094 5.956-6.566 1.699-2.472 4.376-4.892 7.313-4.283 4.01.832 5.225 6.519 9.078 7.907 1.996.719 4.199.088 6.218-.561 2.02-.649 4.199-1.319 6.219-.671s3.505 3.26 2.239 4.962c4.957-2.792 10.815-5.66 16.083-3.509 3.383 1.381 5.646 4.538 8.462 6.866 2.816 2.327 7.208 3.753 9.971 1.362 2.728-2.362 2.011-6.834.231-9.973s-4.419-5.94-5.048-9.493c-.341-1.927-.07-4.006-.929-5.764-1.514-3.1-5.604-3.682-9.05-3.862-50.247-2.616-100.494-5.231-150.741-7.847-14.257-.742-26.556-.055-39.55 6.256-7.621 3.701-14.517 8.814-11.248 18.415 2.862 8.407 9.207 3.295 12.951-1.016z" fill="#44c4a1"/><path d="m286.718 213.133h-191.281c-12.621 0-22.852-10.231-22.852-22.853 0-12.621 10.231-22.852 22.852-22.852h191.282c12.621 0 22.853 10.231 22.853 22.852-.001 12.621-10.232 22.853-22.854 22.853z" fill="#dc8744"/><path d="m94.554 163.22c.912 2.705-1.443 5.528-4.092 6.592s-5.613 1.032-8.344 1.861c-2.731.83-5.46 3.066-5.277 5.914.209 3.249 4.244 5.095 7.399 4.289s5.527-3.338 7.711-5.753c-1.156 1.838-.905 4.444.58 6.028s4.069 2.002 5.978.967c2.826-1.532 3.455-5.2 4.734-8.148 1.279-2.949 5.06-5.665 7.442-3.507 1.791 1.623 1.08 4.513.459 6.849s-.57 5.546 1.714 6.337c2.431.841 4.413-1.942 6.592-3.31 5.586-3.507 14.928 1.917 18.69-3.5 1.223-1.761 1.426-4.348 3.292-5.404 2.228-1.261 5.093.893 5.7 3.38.608 2.487-.216 5.065-.649 7.589-.434 2.523-.324 5.482 1.611 7.159 2.323 2.014 6.176.98 8.188-1.345s2.662-5.497 3.241-8.517c1.663-.148 3.325-.296 4.988-.444-.321 2.764 1.884 5.575 4.646 5.921 2.761.346 5.592-1.833 5.964-4.591.251-1.861-.184-4.344 1.532-5.106 1.32-.586 2.825.588 3.361 1.929s.492 2.849.938 4.222c.788 2.428 3.224 4.221 5.776 4.252s5.031-1.702 5.878-4.11c-1.417-1.708-2.812-4.361-1.203-5.89 1.39-1.321 3.805-.291 4.874 1.301 1.069 1.591 1.399 3.585 2.436 5.197s3.382 2.736 4.848 1.5c2.699.175 5.301-2.173 5.403-4.876 1.184.108 2.368.216 3.551.324-1.254 1.554.08 4.107 2.004 4.642s3.96-.362 5.586-1.522c1.626-1.159 3.071-2.612 4.892-3.431 2.801-1.259 6.029-.832 9.083-.502 3.053.33 6.375.477 8.941-1.21s3.565-5.928 1.123-7.789c.179-2.199 3.245-3.178 5.149-2.063s2.729 3.445 3.004 5.635c.275 2.189.157 4.452.836 6.551 1.168 3.612 4.849 6.25 8.644 6.196 3.796-.054 7.4-2.795 8.466-6.438.296-1.01.423-2.096.985-2.987 1.427-2.26 4.973-2.083 7.117-.487s3.355 4.111 4.879 6.307 3.768 4.28 6.439 4.186c2.671-.095 4.903-3.68 3.009-5.566 1.688.298 3.376.597 5.064.895 5.153-5.015 2.429-14.438-3.466-18.556s-13.548-4.438-20.736-4.637c-46.046-1.273-92.065-3.543-138.013-6.808-12.878-.915-27.161-1.493-37.162 6.671" fill="#3ea69b"/><path d="m91.39 171.737c.853 2.705-1.35 5.528-3.827 6.592s-5.248 1.032-7.802 1.861c-2.554.83-5.106 3.066-4.935 5.914.195 3.249 3.969 5.095 6.919 4.289s5.168-3.338 7.21-5.753c-1.081 1.838-.846 4.444.543 6.028s3.805 2.002 5.59.967c2.642-1.532 3.231-5.2 4.427-8.148 1.196-2.949 4.731-5.665 6.959-3.507 1.675 1.623 1.01 4.513.429 6.849s-.533 5.546 1.603 6.336c2.273.841 4.126-1.942 6.164-3.31 5.223-3.507 13.959 1.917 17.477-3.5 1.144-1.761 1.333-4.348 3.078-5.404 2.084-1.261 4.762.893 5.33 3.38s-.202 5.065-.607 7.589c-.405 2.523-.303 5.482 1.506 7.159 2.173 2.014 5.776.98 7.657-1.345s2.489-5.497 3.03-8.517c1.555-.148 3.109-.296 4.664-.444-.3 2.764 1.762 5.575 4.344 5.921s5.229-1.833 5.577-4.591c.235-1.861-.172-4.344 1.433-5.106 1.235-.586 2.642.588 3.143 1.929s.46 2.849.877 4.222c.737 2.428 3.015 4.221 5.401 4.252 2.387.031 4.705-1.702 5.497-4.11-1.325-1.707-2.629-4.361-1.125-5.89 1.3-1.321 3.558-.291 4.558 1.301 1 1.591 1.308 3.585 2.278 5.197s3.162 2.736 4.533 1.5c2.524.175 4.957-2.173 5.052-4.876l3.321.324c-1.172 1.554.075 4.107 1.874 4.642s3.703-.362 5.223-1.522c1.52-1.159 2.872-2.612 4.575-3.431 2.619-1.259 5.638-.832 8.493-.502s5.961.477 8.361-1.21c2.399-1.687 3.334-5.928 1.05-7.789.167-2.199 3.034-3.178 4.815-2.063s2.552 3.446 2.809 5.635c.258 2.189.147 4.452.782 6.551 1.092 3.612 4.534 6.25 8.083 6.196s6.919-2.795 7.916-6.438c.276-1.01.395-2.096.921-2.987 1.334-2.26 4.65-2.083 6.655-.487s3.137 4.111 4.563 6.307 3.523 4.28 6.021 4.186c2.498-.095 4.585-3.68 2.814-5.566 1.578.298 3.157.597 4.735.895 4.819-5.015 2.271-14.438-3.241-18.556s-12.669-4.438-19.39-4.637c-43.057-1.273-86.088-3.543-129.054-6.808-12.042-.915-25.397-1.493-34.75 6.671" fill="#31978c"/><g fill="#fcd462"><path d="m188.581 206.815c-9.838-18.509-22.555-33.97-44.753-39.387l49.987-49.987 49.987 49.987c-19.218 9.753-34.168 22.92-44.504 39.777-2.498 4.071-8.476 3.827-10.717-.39z"/><path d="m78.426 165.613c14.594 3.581 19.713 13.964 22.122 26.295.469 2.398 4.055 2.479 6.408.155 11.393-11.255 25.256-20.007 41.401-26.45l-23.083-32.237z"/><path d="m306.602 156.681-37.541-31.377-24.636 37.857c17.06 4.205 29.335 16.398 40.239 30.879 2.121 2.817 5.763 2.912 6.514.182 2.777-10.085 7.995-18.46 15.514-25.224 3.707-3.336 3.736-9.119-.09-12.317z"/></g><path d="m300.153 146.357h-217.033c-5.819 0-10.536 4.717-10.536 10.536s4.717 10.536 10.536 10.536h217.033c5.819 0 10.536-4.717 10.536-10.536-.001-5.819-4.718-10.536-10.536-10.536z" fill="#d5d6db"/><path d="m263.496 157.769c-7.362-.346-14.779-2.78-21.97-1.164-5.474 1.23-10.833 4.772-16.252 3.32-4.109-1.102-7.177-4.914-11.374-5.608-5.315-.88-10.17 3.512-15.554 3.721-6.483.251-12.613-5.573-18.806-3.641-3.496 1.09-5.97 4.462-9.523 5.351-3.926.982-7.818-1.308-11.505-2.978-11.343-5.137-25.088-4.615-36.008 1.368-2.843-3.385-7.692-4.335-12.107-4.126s-8.774 1.349-13.193 1.227c-5.835-.161-11.577-2.623-15.715-6.741.518-3.546 3.191-6.486 6.329-8.216 3.138-1.731 6.722-2.439 10.248-3.079 46.724-8.468 94.494-8.75 141.979-9.007 13.897-.075 27.793-.15 41.69-.225 6.084-.033 12.069.343 16.29 5.273 3.239 3.783 4.428 8.655 1.673 13.061-3.325 5.318-9.786 6.752-15.401 8.305-6.77 1.875-13.727 3.492-20.801 3.159z" fill="#44c4a1"/><path d="m307.322 121.953c-17.455-30.014-62.903-51.414-116.245-51.414s-98.789 21.4-116.245 51.414c-6.295 10.824 1.359 24.403 13.88 24.403h204.73c12.522.001 20.175-13.579 13.88-24.403z" fill="#fcd462"/><path d="m309.507 131.826c-.823 7.77-7.233 14.537-16.077 14.537h-204.704c-12.532 0-20.195-13.571-13.893-24.42 4.154-7.161 9.918-13.857 17.044-19.837-1.325 1.79-2.542 3.652-3.616 5.514-6.266 10.849 1.361 24.42 13.893 24.42h204.74c.895.001 1.79-.07 2.613-.214z" fill="#f7be56"/><g fill="#ebf0f3"><ellipse cx="251.789" cy="99.092" rx="3.015" ry="5.322" transform="matrix(.363 -.932 .932 .363 68.129 297.803)"/><ellipse cx="163.148" cy="95.683" rx="3.015" ry="5.322" transform="matrix(.363 -.932 .932 .363 14.812 213.024)"/><ellipse cx="193.814" cy="102.107" rx="3.015" ry="5.322" transform="matrix(.363 -.932 .932 .363 28.37 245.696)"/><ellipse cx="203.974" cy="119.197" rx="5.322" ry="3.015" transform="matrix(.952 -.307 .307 .952 -26.763 68.466)"/><ellipse cx="133.101" cy="92.821" rx="3.015" ry="5.322" transform="matrix(.363 -.932 .932 .363 -1.671 183.198)"/><ellipse cx="175.196" cy="119.197" rx="3.015" ry="5.322" transform="matrix(.363 -.932 .932 .363 .576 239.238)"/><ellipse cx="216.546" cy="85.61" rx="5.322" ry="3.015" transform="matrix(.92 -.393 .393 .92 -16.222 91.958)"/><ellipse cx="224.588" cy="109.736" rx="3.015" ry="5.322" transform="matrix(.191 -.982 .982 .191 73.994 309.244)"/><ellipse cx="144.649" cy="112.866" rx="5.322" ry="3.015" transform="matrix(.75 -.661 .661 .75 -38.499 123.771)"/><ellipse cx="262.125" cy="119.197" rx="3.015" ry="5.322" transform="matrix(.191 -.982 .982 .191 95.078 353.745)"/><ellipse cx="188.734" cy="80.749" rx="5.322" ry="3.015" transform="matrix(.91 -.415 .415 .91 -16.489 85.69)"/><ellipse cx="159.592" cy="80.749" rx="5.322" ry="3.015" transform="matrix(.91 -.415 .415 .91 -19.122 73.585)"/><ellipse cx="109.2" cy="111.971" rx="5.322" ry="3.015" transform="matrix(.91 -.415 .415 .91 -36.643 55.475)"/></g><path d="m327.126 56.144c-36.202-36.205-84.337-56.144-135.535-56.144-51.201 0-99.336 19.939-135.538 56.144-74.737 74.735-74.737 196.339 0 271.074 37.367 37.369 86.452 56.052 135.536 56.052 49.086 0 98.171-18.683 135.538-56.052 36.205-36.203 56.144-84.337 56.144-135.538-.001-51.199-19.94-99.333-56.145-135.536zm-255.627 15.446c32.079-32.076 74.726-49.743 120.092-49.743 41.701 0 81.083 14.965 112.094 42.293l-239.634 239.634c-58.631-66.628-56.173-168.563 7.448-232.184zm240.181 240.182c-63.619 63.621-165.553 66.079-232.183 7.448l239.633-239.634c27.328 31.01 42.293 70.393 42.293 112.094.001 45.366-17.666 88.013-49.743 120.092z" fill="#e56353"/></g></svg>